#N canvas 193 163 844 614 12;
#X declare -lib sndfilter;
#X obj 311 255 sndfilter.reverb~;
#X obj 331 58 bng 15 250 50 0 empty empty empty 17 7 0 10 -262144 -1
-1;
#X obj 34 257 loadbang;
#X msg 331 93 0 \, 1 2 \, 0.4 150 2 \, 0 150 150;
#X obj 331 133 vline~;
#X obj 312 214 *~;
#X obj 275 133 noise~;
#X obj 312 334 dac~;
#X obj 312 294 *~ 1;
#X msg 553 48 preset default;
#X msg 553 76 preset small-hall-1;
#X msg 553 132 preset medium-hall-1;
#X msg 553 188 preset large-hall-1;
#X msg 553 244 preset small-room-1;
#X msg 553 300 preset medium-room-1;
#X msg 553 356 preset large-room-1;
#X msg 553 412 preset medium-er-1;
#X msg 553 468 preset plate-high;
#X msg 553 496 preset plate-low;
#X msg 553 524 preset long-reverb-1;
#X msg 553 552 preset long-reverb-2;
#X msg 553 104 preset small-hall-2;
#X msg 553 160 preset medium-hall-2;
#X msg 553 216 preset large-hall-2;
#X msg 553 272 preset small-room-2;
#X msg 553 328 preset medium-room-2;
#X msg 553 384 preset large-room-2;
#X msg 553 440 preset medium-er-2;
#X msg 34 294 \; pd dsp 1;
#X obj 30 21 declare -lib sndfilter;
#X text 328 33 Hit me!;
#X text 552 10 Switch between available presets;
#X text 26 507 Links \; - https://github.com/velipso/sndfilter \; -
<TODO actondev>;
#X text 26 49 The external itself is called sndfilter Thus \, for sndfilter.reverb~
to work \; we need to load the library sndfilter via the declare object
\; \; This can also be done by launching puredata with the argument
"-lib sndfilter", f 31;
#X connect 0 0 8 0;
#X connect 1 0 3 0;
#X connect 2 0 28 0;
#X connect 3 0 4 0;
#X connect 4 0 5 1;
#X connect 5 0 0 0;
#X connect 6 0 5 0;
#X connect 8 0 7 0;
#X connect 8 0 7 1;
#X connect 9 0 0 0;
#X connect 10 0 0 0;
#X connect 11 0 0 0;
#X connect 12 0 0 0;
#X connect 13 0 0 0;
#X connect 14 0 0 0;
#X connect 15 0 0 0;
#X connect 16 0 0 0;
#X connect 17 0 0 0;
#X connect 18 0 0 0;
#X connect 19 0 0 0;
#X connect 20 0 0 0;
#X connect 21 0 0 0;
#X connect 22 0 0 0;
#X connect 23 0 0 0;
#X connect 24 0 0 0;
#X connect 25 0 0 0;
#X connect 26 0 0 0;
#X connect 27 0 0 0;
